<svg xmlns="http://www.w3.org/2000/svg" viewBox="0 0 32 32" width="32" height="32">
  <!-- Farmland with wheat -->
  <rect x="4" y="20" width="24" height="8" fill="#8B4513"/>
  <rect x="4" y="18" width="24" height="2" fill="#A0522D"/>
  
  <!-- Wheat stalks -->
  <rect x="8" y="10" width="2" height="10" fill="#8B4513"/>
  <rect x="14" y="8" width="2" height="12" fill="#8B4513"/>
  <rect x="20" y="6" width="2" height="14" fill="#8B4513"/>
  <rect x="26" y="4" width="2" height="16" fill="#8B4513"/>
  
  <!-- Wheat tops -->
  <path fill="#FFD700" d="M9 10l-2 2 2 2 2-2-2-2z"/>
  <path fill="#FFD700" d="M15 8l-2 2 2 2 2-2-2-2z"/>
  <path fill="#FFD700" d="M21 6l-2 2 2 2 2-2-2-2z"/>
  <path fill="#FFD700" d="M27 4l-2 2 2 2 2-2-2-2z"/>
  
  <!-- Water source -->
  <rect x="4" y="24" width="8" height="4" fill="#1E90FF"/>
</svg>